<!DOCTYPE svg PUBLIC "-//W3C//DTD SVG 1.1//EN" "http://www.w3.org/Graphics/SVG/1.1/DTD/svg11.dtd">
<!-- Uploaded to: SVG Repo, www.svgrepo.com, Transformed by: SVG Repo Mixer Tools -->
<svg fill="#00a832" version="1.0" id="Layer_1" xmlns="http://www.w3.org/2000/svg" xmlns:xlink="http://www.w3.org/1999/xlink" width="191px" height="191px" viewBox="-4.48 -4.48 72.96 72.96" enable-background="new 0 0 64 64" xml:space="preserve" stroke="#00a832" stroke-width="0.00064" transform="rotate(0)">
<g id="SVGRepo_bgCarrier" stroke-width="0"/>
<g id="SVGRepo_tracerCarrier" stroke-linecap="round" stroke-linejoin="round" stroke="#CCCCCC" stroke-width="1.408"/>
<g id="SVGRepo_iconCarrier"> <path d="M40,0c-6.625,0-12.625,2.688-16.969,7.031l-5.172,5.172L6.828,1.172c-1.562-1.562-4.094-1.562-5.656,0s-1.562,4.094,0,5.656 l11.031,11.031l-5.172,5.172C2.688,27.375,0,33.375,0,40c0,13.254,10.746,24,24,24c6.625,0,12.625-2.688,16.969-7.031l16-16 C61.312,36.625,64,30.625,64,24C64,10.746,53.254,0,40,0z M36,40h-4v4c0,2.211-1.789,4-4,4s-4-1.789-4-4v-4h-4c-2.211,0-4-1.789-4-4 s1.789-4,4-4h4v-4c0-2.211,1.789-4,4-4s4,1.789,4,4v4h4c2.211,0,4,1.789,4,4S38.211,40,36,40z M44,24c-2.211,0-4-1.789-4-4 s1.789-4,4-4s4,1.789,4,4S46.211,24,44,24z"/> </g>
</svg>